{"title":"A.Serious.Man.2009.BRRIP.H264-ZEKTORM","uid":5289670,"size":1572794285,"categoryP":"video","categoryS":"movies","magnet":"?xt=urn:btih:da677fd2c7ec7d23748928e171e9e0f113fd504f&amp;dn=A.Serious.Man.2009.BRRIP.H264-ZEKTORM&amp;tr=udp%3A%2F%2Ftracker.openbittorrent.com%3A80&amp;tr=udp%3A%2F%2Fopen.demonii.com%3A1337&amp;tr=udp%3A%2F%2Ftracker.coppersurfer.tk%3A6969&amp;tr=udp%3A%2F%2Fexodus.desync.com%3A6969","seeders":1,"leechers":0,"uploader":"blowley","files":4,"time":1263854210,"description":"Title                            : A Serious Man\nYear                             : 2009\nGenre                            : Comedy | Drama\niMDB URL                         : http://www.imdb.com/title/tt1019452/\nAwards                           : Nominated for Golden Globe. Another 5 wins &amp; 22 nominations\n\nComplete name                    : A.Serious.Man.2009.BRRIP.H264-ZEKTORM.mp4\nFormat                           : MPEG-4\nFormat profile                   : Base Media\nCodec ID                         : isom\nFile size                        : 1.46 GiB\nDuration                         : 1h 45mn\nOverall bit rate                 : 1986 Kbps\nSubtitles                        : English (Format: srt)\n\nVideo\nID                               : 1\nFormat                           : AVC\nFormat/Info                      : Advanced Video Codec\nFormat profile                   : &lt;a class=&quot;__cf_email__&quot; href=&quot;/cdn-cgi/l/email-protection&quot; data-cfemail=&quot;0d45646a654d413e233d&quot;&gt;[email&amp;#160;protected]&lt;/a&gt;&lt;script cf-hash='f9e31' type=&quot;text/javascript&quot;&gt;\n/* &lt;![CDATA[ */!function(){try{var t=&quot;currentScript&quot;in document?document.currentScript:function(){for(var t=document.getElementsByTagName(&quot;script&quot;),e=t.length;e--;)if(t[e].getAttribute(&quot;cf-hash&quot;))return t[e]}();if(t&amp;&amp;t.previousSibling){var e,r,n,i,c=t.previousSibling,a=c.getAttribute(&quot;data-cfemail&quot;);if(a){for(e=&quot;&quot;,r=parseInt(a.substr(0,2),16),n=2;a.length-n;n+=2)i=parseInt(a.substr(n,2),16)^r,e+=String.fromCharCode(i);e=document.createTextNode(e),c.parentNode.replaceChild(e,c)}}}catch(u){}}();/* ]]&gt; */&lt;/script&gt;\nFormat settings, CABAC           : Yes\nFormat settings, ReFrames        : 2 frames\nCodec ID                         : avc1\nCodec ID/Info                    : Advanced Video Coding\nDuration                         : 1h 45mn\nBit rate mode                    : Variable\nBit rate                         : 1723 Kbps\nWidth                            : 1280 pixels\nHeight                           : 688 pixels\nDisplay aspect ratio             : 1.860\nFrame rate mode                  : Constant\nFrame rate                       : 23.976 fps\nResolution                       : 24 bits\nColorimetry                      : 4:2:0\nScan type                        : Progressive\nBits/(Pixel*Frame)               : 0.082\nStream size                      : 1.27 GiB (87%)\nTitle                            : Video\nWriting library                  : x264\n\nAudio #1\nID                               : 2\nFormat                           : AAC\nFormat/Info                      : Advanced Audio Codec\nFormat version                   : Version 4\nFormat profile                   : LC\nFormat settings, SBR             : Yes\nFormat settings, PS              : No\nCodec ID                         : 40\nDuration                         : 1h 45mn\nBit rate mode                    : Variable\nBit rate                         : 185 Kbps\nMaximum bit rate                 : 258 Kbps\nChannel(s)                       : 6 channels\nChannel positions                : Front: L C R, Rear: L R, LFE\nSampling rate                    : 48.0 KHz\nResolution                       : 16 bits\nStream size                      : 140 MiB (9%)\nTitle                            : English\nLanguage                         : English\n\nAudio #2\nID                               : 3\nFormat                           : AAC\nFormat/Info                      : Advanced Audio Codec\nFormat version                   : Version 4\nFormat profile                   : LC\nFormat settings, SBR             : Yes\nFormat settings, PS              : No\nCodec ID                         : 40\nDuration                         : 1h 45mn\nBit rate mode                    : Variable\nBit rate                         : 73.8 Kbps\nMaximum bit rate                 : 101 Kbps\nChannel(s)                       : 2 channels\nChannel positions                : L R\nSampling rate                    : 48.0 KHz\nResolution                       : 16 bits\nStream size                      : 55.8 MiB (4%)\nTitle                            : English\nLanguage                         : English\n","torrent":{"xt":"urn:btih:da677fd2c7ec7d23748928e171e9e0f113fd504f","amp;dn":"A.Serious.Man.2009.BRRIP.H264-ZEKTORM","amp;tr":["udp%3A%2F%2Ftracker.openbittorrent.com%3A80","udp%3A%2F%2Fopen.demonii.com%3A1337","udp%3A%2F%2Ftracker.coppersurfer.tk%3A6969","udp%3A%2F%2Fexodus.desync.com%3A6969"],"infoHash":"da677fd2c7ec7d23748928e171e9e0f113fd504f","infoHashBuffer":{"type":"Buffer","data":[218,103,127,210,199,236,125,35,116,137,40,225,113,233,224,241,19,253,80,79]},"announce":[],"urlList":[]}}